<svg width="12" height="22" viewBox="0 0 12 22" fill="none" xmlns="http://www.w3.org/2000/svg">
<path d="M11.4678 1.04959C11.2992 0.87537 11.0989 0.737153 10.8785 0.642848C10.658 0.548542 10.4216 0.5 10.183 0.5C9.94427 0.5 9.70793 0.548542 9.48746 0.642848C9.26699 0.737153 9.06672 0.87537 8.89812 1.04959L0.532971 9.6755C0.364022 9.84936 0.229983 10.0559 0.138529 10.2832C0.0470748 10.5106 0 10.7543 0 11.0004C0 11.2465 0.0470748 11.4902 0.138529 11.7176C0.229983 11.9449 0.364022 12.1514 0.532971 12.3253L8.89812 20.9512C9.06684 21.1252 9.26715 21.2632 9.48761 21.3574C9.70806 21.4515 9.94434 21.5 10.183 21.5C10.4216 21.5 10.6579 21.4515 10.8783 21.3574C11.0988 21.2632 11.2991 21.1252 11.4678 20.9512C11.6365 20.7772 11.7704 20.5707 11.8617 20.3433C11.953 20.116 12 19.8724 12 19.6263C12 19.3803 11.953 19.1366 11.8617 18.9093C11.7704 18.682 11.6365 18.4754 11.4678 18.3014L4.39661 10.991L11.4678 3.69938C12.1603 2.96646 12.1603 1.76371 11.4678 1.04959Z" fill="#CCCCCC"/>
</svg>
